HIERARCHY
ROOT Pelvis
{
	OFFSET 0.000000 0.000000 0.000000
	CHANNELS 6 Xposition Yposition Zposition Xrotation Yrotation Zrotation
	JOINT LeftUpLeg_virtual
	{
		OFFSET 0.000000 0.000000 0.000000
		CHANNELS 3 Xrotation Yrotation Zrotation
		JOINT LeftUpLeg
		{
			OFFSET 18.735201 -5.666702 -4.541200
			CHANNELS 3 Xrotation Yrotation Zrotation
			JOINT LeftLeg
			{
				OFFSET -0.021200 -31.938179 0.493100
				CHANNELS 3 Xrotation Yrotation Zrotation
				JOINT LeftFoot
				{
					OFFSET 0.021200 -31.938179 -4.336299
					CHANNELS 3 Xrotation Yrotation Zrotation
					JOINT LeftToeBase
					{
						OFFSET 0.943001 -26.722000 15.023500
						CHANNELS 3 Xrotation Yrotation Zrotation
						End Site
						{
							OFFSET 0 0 0
						}
					}
				}
			}
		}
	}
	JOINT RightUpLeg_virtual
	{
		OFFSET 0.000000 0.000000 0.000000
		CHANNELS 3 Xrotation Yrotation Zrotation
		JOINT RightUpLeg
		{
			OFFSET -18.735201 -5.666702 -4.541200
			CHANNELS 3 Xrotation Yrotation Zrotation
			JOINT RightLeg
			{
				OFFSET 0.018946 -31.938133 0.493100
				CHANNELS 3 Xrotation Yrotation Zrotation
				JOINT RightFoot
				{
					OFFSET -0.018946 -31.938126 -4.336299
					CHANNELS 3 Xrotation Yrotation Zrotation
					JOINT RightToeBase
					{
						OFFSET -0.943001 -26.722004 15.023500
						CHANNELS 3 Xrotation Yrotation Zrotation
						End Site
						{
							OFFSET 0 0 0
						}
					}
				}
			}
		}
	}
	JOINT Hips_virtual
	{
		OFFSET 0.000000 0.000000 0.000000
		CHANNELS 3 Xrotation Yrotation Zrotation
		JOINT Hips
		{
			OFFSET -0.000000 -0.000000 -0.000000
			CHANNELS 3 Xrotation Yrotation Zrotation
			JOINT Spine
			{
				OFFSET 0.000000 10.199997 -0.299500
				CHANNELS 3 Xrotation Yrotation Zrotation
				JOINT Spine1
				{
					OFFSET 0.000000 11.900002 -1.516600
					CHANNELS 3 Xrotation Yrotation Zrotation
					JOINT Spine2
					{
						OFFSET 0.000000 13.600006 -2.842500
						CHANNELS 3 Xrotation Yrotation Zrotation
						JOINT Neck_virtual
						{
							OFFSET 0.000000 0.000000 0.000000
							CHANNELS 3 Xrotation Yrotation Zrotation
							JOINT Neck
							{
								OFFSET 0.000000 9.624100 -2.890100
								CHANNELS 3 Xrotation Yrotation Zrotation
								JOINT Head
								{
									OFFSET 0.000000 14.068802 -1.351900
									CHANNELS 3 Xrotation Yrotation Zrotation
									End Site
									{
										OFFSET 0 0 0
									}
								}
							}
						}
						JOINT LeftShoulder_virtual
						{
							OFFSET 0.000000 0.000000 0.000000
							CHANNELS 3 Xrotation Yrotation Zrotation
							JOINT LeftShoulder
							{
								OFFSET 15.263000 10.923401 -0.547700
								CHANNELS 3 Xrotation Yrotation Zrotation
								JOINT LeftArm
								{
									OFFSET 25.438599 -2.830597 -13.032500
									CHANNELS 3 Xrotation Yrotation Zrotation
									JOINT LeftForeArm
									{
										OFFSET 29.960503 0.000000 0.000000
										CHANNELS 3 Xrotation Yrotation Zrotation
										JOINT LeftHand
										{
											OFFSET 27.849251 0.000000 0.000000
											CHANNELS 3 Xrotation Yrotation Zrotation
											End Site
											{
												OFFSET 0 0 0
											}
										}
									}
								}
							}
						}
						JOINT RightShoulder_virtual
						{
							OFFSET 0.000000 0.000000 0.000000
							CHANNELS 3 Xrotation Yrotation Zrotation
							JOINT RightShoulder
							{
								OFFSET -15.263000 10.923401 -0.547700
								CHANNELS 3 Xrotation Yrotation Zrotation
								JOINT RightArm
								{
									OFFSET -25.438599 -2.830597 -13.032500
									CHANNELS 3 Xrotation Yrotation Zrotation
									JOINT RightForeArm
									{
										OFFSET -29.960503 0.000000 0.000000
										CHANNELS 3 Xrotation Yrotation Zrotation
										JOINT RightHand
										{
											OFFSET -27.849251 0.000000 0.000000
											CHANNELS 3 Xrotation Yrotation Zrotation
											End Site
											{
												OFFSET 0 0 0
											}
										}
									}
								}
							}
						}
					}
				}
			}
		}
	}
}
MOTION
Frames: 7
Frame Time: 0.03333333
-9.979698 74.676666 -113.637390 0.000000 0.000000 0.000000 171.608038 -76.240484 172.500225 -59.123197 -13.431792 25.807984 48.526889 -12.390003 5.468614 23.003194 -4.373939 -9.384035 0.000000 0.000000 0.000000 174.854646 -76.948816 175.392564 -50.001998 8.449296 -31.929068 71.580410 8.129799 1.988146 -2.389448 9.418951 10.366312 0.000000 0.000000 0.000000 171.365963 -76.782815 172.466511 1.818085 0.560232 -2.320484 3.527073 13.243971 -4.024975 6.389046 14.433964 -1.191621 0.000000 0.000000 0.000000 4.323980 14.660315 -0.670044 3.553724 1.371715 -2.897487 0.000000 0.000000 0.000000 4.077678 14.685091 -0.886933 4.983407 -0.908996 -12.298505 -59.531676 -33.675134 -52.802714 32.059675 -86.138821 30.474812 0.000000 0.000000 0.000000 4.681158 15.531119 -0.920085 -13.407030 4.023092 -11.779644 -93.502462 39.042895 114.720581 3.950352 36.036461 -1.463236 0.000000 0.000000 0.000000 
-8.518039 75.588196 -119.175598 0.000000 0.000000 0.000000 174.019969 -77.109243 174.151546 -61.323276 -13.832230 25.905765 49.684138 -12.588275 4.014823 24.014786 -2.649118 -6.770019 0.000000 0.000000 0.000000 179.119880 -77.620360 179.096999 -51.135161 5.309253 -29.020927 73.476190 6.904533 2.876070 -0.599665 8.292849 8.805613 0.000000 0.000000 0.000000 173.841865 -77.205303 174.239861 1.790136 -0.563455 -2.206455 3.855970 12.816608 -3.190633 6.568611 13.732663 -1.093675 0.000000 0.000000 0.000000 4.416409 13.892943 -0.598713 3.361061 1.434620 -2.788253 0.000000 0.000000 0.000000 3.919574 13.932496 -0.850400 4.913766 -0.858007 -11.493455 -59.981553 -33.632429 -53.426201 41.428448 -87.084625 39.897532 0.000000 0.000000 0.000000 4.686870 14.718240 -0.886649 -13.584937 1.913595 -11.033231 -95.563513 38.322142 115.783605 4.188412 36.973662 -2.004502 0.000000 0.000000 0.000000 
-7.125855 76.385712 -123.184967 0.000000 0.000000 0.000000 176.425644 -78.194164 175.980999 -63.816964 -14.644627 25.081402 52.228363 -13.190207 3.137095 23.180719 -1.560122 -4.757504 0.000000 0.000000 0.000000 -177.353566 -78.485868 -177.858208 -51.046921 2.667856 -26.289651 71.668731 5.429793 3.539089 0.843220 6.997977 7.882598 0.000000 0.000000 0.000000 175.674405 -78.460323 175.466863 1.413879 -1.815966 -2.230435 4.410158 12.605083 -2.500091 6.707597 13.205121 -0.995924 0.000000 0.000000 0.000000 4.482683 13.299782 -0.545014 3.106196 1.453178 -2.704256 0.000000 0.000000 0.000000 3.841280 13.352967 -0.787664 4.794508 -0.906272 -10.397929 -60.544784 -33.062705 -54.284404 46.615184 -87.609190 45.311933 0.000000 0.000000 0.000000 4.744660 14.078869 -0.870632 -13.803668 0.182429 -10.461468 -97.536624 37.918977 116.696719 4.430695 37.640145 -2.513392 0.000000 0.000000 0.000000 
-5.945950 77.025497 -125.808350 0.000000 0.000000 0.000000 177.589071 -79.386647 176.723618 -65.869415 -15.288955 24.164535 53.990149 -14.086971 2.682088 22.698334 -1.273544 -3.954242 0.000000 0.000000 0.000000 -175.520999 -79.511585 -176.371617 -50.353343 0.610504 -24.443575 67.718566 4.092344 3.940010 1.647587 5.715744 7.626253 0.000000 0.000000 0.000000 176.236557 -80.168061 175.574725 0.907672 -2.281563 -2.127445 4.991431 12.615661 -2.103307 6.762939 12.906102 -0.950594 0.000000 0.000000 0.000000 4.498574 12.924689 -0.553995 2.839313 1.428081 -2.674988 0.000000 0.000000 0.000000 3.852493 13.004075 -0.738155 4.668822 -0.979368 -9.312041 -60.867422 -32.142495 -55.209430 44.508706 -87.824444 43.538966 0.000000 0.000000 0.000000 4.837693 13.676963 -0.887945 -13.991841 -1.039783 -10.000032 -99.221912 37.983648 117.854668 4.592206 37.753577 -2.894942 0.000000 0.000000 0.000000 
-5.004060 77.463020 -127.204971 0.000000 0.000000 0.000000 177.130561 -80.762793 176.012909 -67.205271 -15.283236 23.880752 54.267629 -14.602975 2.383144 23.836243 -1.051894 -4.006648 0.000000 0.000000 0.000000 -175.801160 -80.740226 -176.810033 -50.159157 -0.748407 -23.834869 64.064504 3.176306 4.131299 2.150690 4.512869 7.590925 0.000000 0.000000 0.000000 175.207357 -82.152641 174.268069 0.638428 -2.452677 -2.062944 5.403090 12.801620 -2.006226 6.699149 12.839822 -0.955197 0.000000 0.000000 0.000000 4.436526 12.781385 -0.628713 2.619336 1.386216 -2.710708 0.000000 0.000000 0.000000 3.937140 12.893797 -0.713306 4.563345 -1.020976 -8.463979 -60.802269 -31.077822 -56.026765 36.704846 -87.773668 36.107061 0.000000 0.000000 0.000000 4.948008 13.517117 -0.939329 -14.094677 -1.719258 -9.626790 -100.510188 38.653355 119.311015 4.658778 37.163561 -3.064100 0.000000 0.000000 0.000000 
-4.443393 77.670616 -127.464111 0.000000 0.000000 0.000000 174.873839 -81.956014 173.621346 -67.383764 -14.712099 24.242787 52.794446 -14.614061 2.104179 26.311079 -0.883348 -4.995677 0.000000 0.000000 0.000000 -178.702938 -81.761954 -179.744406 -51.036727 -1.113893 -24.066979 62.805611 2.872500 4.015376 2.295056 3.604245 7.761274 0.000000 0.000000 0.000000 173.018910 -83.655262 172.028573 0.604978 -2.137120 -2.078600 5.594246 13.089323 -2.101153 6.557815 12.959055 -0.988667 0.000000 0.000000 0.000000 4.339155 12.816393 -0.731716 2.490700 1.350618 -2.806008 0.000000 0.000000 0.000000 4.053286 12.984477 -0.697216 4.478909 -1.010051 -7.963144 -60.506030 -30.202789 -56.720387 27.034695 -87.369314 26.796236 0.000000 0.000000 0.000000 5.019124 13.552448 -0.990671 -14.096365 -1.877862 -9.381421 -101.323076 39.767936 120.548481 4.609808 36.016895 -2.992359 0.000000 0.000000 0.000000 
-4.253473 77.714706 -126.867126 0.000000 0.000000 0.000000 170.965359 -82.559584 169.508602 -66.216628 -13.983843 24.785329 50.058525 -14.570682 2.074469 28.601252 -1.279150 -7.029784 0.000000 0.000000 0.000000 177.096232 -82.456858 176.007322 -53.031925 -0.452289 -24.528010 64.422153 3.185197 3.563879 2.157473 3.285153 8.418346 0.000000 0.000000 0.000000 169.777534 -84.440249 168.820870 0.791815 -1.776047 -2.204125 5.594996 13.418412 -2.249897 6.435695 13.209137 -1.047433 0.000000 0.000000 0.000000 4.209322 12.970790 -0.824989 2.481675 1.332307 -2.940313 0.000000 0.000000 0.000000 4.153514 13.190357 -0.667096 4.430878 -0.986119 -7.843199 -60.343403 -29.745412 -57.333373 19.032708 -86.503909 19.089607 0.000000 0.000000 0.000000 5.059479 13.722759 -1.033688 -14.035937 -1.577779 -9.421803 -101.900330 41.031139 121.097533 4.490361 34.553381 -2.711240 0.000000 0.000000 0.000000 
